#!OML:ASF F:\VICON\USERDATA\INSTALL\rory3\rory3.ASF
:FULLY-SPECIFIED
:DEGREES
424
root 0.271053 18.0881 0.119177 -183.301 2.13714 -179.79
lowerback 8.16064 1.16734 -1.06468
upperback 0.127087 1.49261 0.0788013
thorax -4.47475 0.777309 0.501376
lowerneck -22.0331 -4.09767 -12.0793
upperneck 30.57 -5.68253 8.11218
head 14.9026 -3.24145 4.21855
rclavicle -1.17019e-015 -7.95139e-016
rhumerus -33.4346 -8.28061 -85.3134
rradius 30.4108
rwrist 6.90092
rhand -14.1628 7.7297
rfingers 7.12502
rthumb 11.9721 -21.9079
lclavicle -1.17019e-015 -7.95139e-016
lhumerus -35.6729 6.188 84.1714
lradius 30.8379
lwrist -8.86506
lhand -17.097 27.9826
lfingers 7.12502
lthumb 9.14173 57.7645
rfemur -2.72239 1.20188 21.8506
rtibia 23.9804
rfoot -13.4967 -4.23606
rtoes 0.936386
lfemur 3.73039 -2.68405 -22.005
ltibia 12.3878
lfoot -8.34053 0.289322
ltoes -1.61381
425
root 0.283765 18.0873 0.126063 -183.304 2.09329 -179.727
lowerback 8.22271 1.16706 -1.01341
upperback 0.128889 1.49711 0.0841089
thorax -4.50663 0.778765 0.476233
lowerneck -21.998 -4.1114 -12.1769
upperneck 30.5501 -5.71882 8.24826
head 14.8996 -3.25099 4.28602
rclavicle -4.97505e-015 -2.18663e-015
rhumerus -33.4279 -8.37762 -85.2945
rradius 30.2809
rwrist 7.04187
rhand -14.3181 8.06481
rfingers 7.12502
rthumb 11.8223 -21.5815
lclavicle -4.97505e-015 -2.18663e-015
lhumerus -35.6662 5.93055 84.2003
lradius 30.9743
lwrist -8.66866
lhand -17.2437 27.5427
lfingers 7.12502
lthumb 9.00019 57.3307
rfemur -2.70052 1.18919 21.9762
rtibia 23.9066
rfoot -13.4436 -4.28238
rtoes 0.997723
lfemur 3.62393 -2.81609 -21.8956
ltibia 12.5644
lfoot -8.4087 0.341913
ltoes -1.46063
426
root 0.297175 18.0886 0.132765 -183.271 2.20523 -179.594
lowerback 8.29051 1.2048 -0.893557
upperback 0.0725535 1.55716 0.104096
thorax -4.60181 0.805756 0.420182
lowerneck -21.8284 -4.09614 -12.2039
upperneck 30.4874 -5.73106 8.30483
head 14.8379 -3.25636 4.31038
rclavicle 4.84926e-015 -2.98177e-016
rhumerus -33.5265 -8.41819 -85.2942
rradius 30.1896
rwrist 7.14673
rhand -14.3176 8.01524
rfingers 7.12502
rthumb 11.8228 -21.631
lclavicle 4.84926e-015 -2.98177e-016
lhumerus -35.7404 5.80874 84.1538
lradius 31.1061
lwrist -8.63182
lhand -17.3089 27.3955
lfingers 7.12502
lthumb 8.93729 57.1862
rfemur -2.74939 1.33288 22.1955
rtibia 23.8605
rfoot -13.3483 -4.33425
rtoes 0.936329
lfemur 3.50857 -2.78172 -21.693
ltibia 12.6545
lfoot -8.42257 0.372873
ltoes -1.27585
427
root 0.30851 18.0904 0.138405 -183.286 2.29915 -179.562
lowerback 8.39329 1.24252 -0.862108
upperback 0.0406064 1.60901 0.105657
thorax -4.69288 0.830766 0.395011
lowerneck -21.6704 -4.08191 -12.1862
upperneck 30.4117 -5.73294 8.29932
head 14.7677 -3.25821 4.30223
rclavicle 8.19288e-015 -2.98177e-016
rhumerus -33.5735 -8.471 -85.2986
rradius 30.0744
rwrist 7.19306
rhand -14.3913 7.84074
rfingers 7.12502
rthumb 11.7518 -21.8096
lclavicle 8.19288e-015 -2.98177e-016
lhumerus -35.7705 5.80703 84.0976
lradius 31.2135
lwrist -8.68406
lhand -17.335 27.3353
lfingers 7.12502
lthumb 8.91206 57.1271
rfemur -2.75299 1.39937 22.2806
rtibia 23.836
rfoot -13.3132 -4.32129
rtoes 0.77854
lfemur 3.47198 -2.74702 -21.6127
ltibia 12.7118
lfoot -8.46333 0.421681
ltoes -1.36648
428
root 0.319784 18.0923 0.146716 -183.319 2.29128 -179.603
lowerback 8.52631 1.23371 -0.946775
upperback 0.0122716 1.58848 0.12656
thorax -4.79988 0.823059 0.463397
lowerneck -21.5775 -4.07918 -12.2213
upperneck 30.422 -5.72506 8.25978
head 14.7504 -3.27 4.2929
rclavicle 1.89078e-015 -6.95746e-016
rhumerus -33.6001 -8.58766 -85.2288
rradius 29.9453
rwrist 7.36579
rhand -14.4419 7.80403
rfingers 7.12502
rthumb 11.703 -21.8491
lclavicle 1.89078e-015 -6.95746e-016
lhumerus -35.7658 5.85045 84.0804
lradius 31.2451
lwrist -8.69109
lhand -17.2992 27.0814
lfingers 7.12502
lthumb 8.94666 56.8717
rfemur -2.751 1.41839 22.2867
rtibia 23.8356
rfoot -13.2881 -4.35276
rtoes 0.686335
lfemur 3.48916 -2.80677 -21.6099
ltibia 12.692
lfoot -8.46682 0.427359
ltoes -0.873797
429
root 0.331443 18.0918 0.151256 -183.306 2.27354 -179.603
lowerback 8.53865 1.22005 -1.02073
upperback -0.0229406 1.56381 0.174404
thorax -4.84656 0.812916 0.557026
lowerneck -21.4582 -4.06132 -12.319
upperneck 30.4517 -5.71921 8.31996
head 14.7421 -3.28066 4.33684
rclavicle 8.863e-015 -2.08724e-015
rhumerus -33.6454 -8.61818 -85.1647
rradius 29.8494
rwrist 7.49233
rhand -14.4814 7.9042
rfingers 7.12502
rthumb 11.6649 -21.7511
lclavicle 8.863e-015 -2.08724e-015
lhumerus -35.8078 5.87049 84.0965
lradius 31.3372
lwrist -8.63375
lhand -17.2516 27.0239
lfingers 7.12502
lthumb 8.99254 56.8122
rfemur -2.81318 1.42279 22.3383
rtibia 23.8806
rfoot -13.2411 -4.36792
rtoes 1.16499
lfemur 3.53383 -2.81545 -21.5525
ltibia 12.5687
lfoot -8.43853 0.364848
ltoes -0.746881
430
root 0.341244 18.0905 0.151041 -183.342 2.17519 -179.703
lowerback 8.52662 1.18403 -1.13853
upperback -0.0103782 1.5039 0.15691
thorax -4.82814 0.785991 0.613027
lowerneck -21.4757 -3.9856 -12.2747
upperneck 30.5227 -5.65196 8.36023
head 14.7676 -3.24724 4.36115
rclavicle -5.50385e-015 2.98177e-015
rhumerus -33.6058 -8.65164 -85.1529
rradius 29.6803
rwrist 7.58876
rhand -14.4748 8.06896
rfingers 7.12502
rthumb 11.6712 -21.586
lclavicle -5.50385e-015 2.98177e-015
lhumerus -35.8682 5.85847 84.0679
lradius 31.5397
lwrist -8.50439
lhand -17.0933 27.4153
lfingers 7.12502
lthumb 9.14533 57.197
rfemur -2.80727 1.29152 22.2483
rtibia 23.9613
rfoot -13.2698 -4.31147
rtoes 1.35894
lfemur 3.64445 -2.89267 -21.6373
ltibia 12.4215
lfoot -8.35951 0.341796
ltoes -0.613638
